<?xml version="1.0" encoding="UTF-8"?>
<svg id="Layer_1" xmlns="http://www.w3.org/2000/svg" version="1.1" viewBox="0 0 776.4 269.2">
  <!-- Generator: Adobe Illustrator 29.2.1, SVG Export Plug-In . SVG Version: 2.1.0 Build 116)  -->
  <defs>
    <style>
      .st0 {
        fill: #fff;
      }

      .st1 {
        fill: none;
      }
    </style>
  </defs>
  <circle class="st0" cx="611" cy="93" r="12.2"/>
  <g>
    <path class="st0" d="M260.6,181.7h-2.4l2-40.2h2.3c2.5,12,7,21.6,13.5,28.8s14,10.8,22.3,10.8,10.8-1.7,14.6-5.1c3.9-3.4,5.8-7.7,5.8-12.9s-1.9-9.7-5.7-13.1c-3.8-3.4-12-7.3-24.7-11.5-11.5-3.9-19.3-7.8-23.5-11.8-4.1-4-6.2-9.2-6.2-15.6s2.4-13.4,7.2-18.4c4.8-5,10.7-7.5,17.7-7.5s7.1.6,10.2,1.9,6.2,3.3,9.2,6.1c.5.4,1.2,1.1,2,2,2.1,2.2,3.8,3.2,5.3,3.2s3.2-.9,4.3-2.7,1.9-4.9,2.6-9.1h2v36.8h-2c-3.5-11.8-8-20.8-13.7-26.9s-12.3-9.2-19.9-9.2-9.7,1.5-13,4.6c-3.4,3.1-5.1,6.9-5.1,11.7s.3,3.5.8,5.2c.6,1.7,1.4,3.3,2.5,4.9,3.2,4.4,10.9,8.7,23.1,12.7,1.3.4,2.2.7,2.9.9.7.2,1.7.6,3.2,1,9.4,3,16.1,6.1,20,9.3,2.7,2.2,4.7,4.8,6,8,1.4,3.2,2.1,6.7,2.1,10.6,0,7.6-2.6,14-7.6,19.1-5.1,5.1-11.5,7.6-19.2,7.6s-8.3-.7-11.8-2.1c-3.5-1.4-7.1-3.8-11-7.1h-.1c-3.6-3.2-6.3-4.8-8-4.8s-3.2,1.1-4.5,3.3-2.3,5.4-2.9,9.4h-.3Z"/>
    <path class="st0" d="M372.6,167.9c-1.8,4.9-4.3,8.6-7.5,11.1-3.3,2.4-7.3,3.7-12.2,3.7s-9.3-1.3-12.4-4-4.7-6.2-4.7-10.6,2.9-11.1,8.8-14.9c5.9-3.8,15.1-6.6,27.6-8.4v-7.9c0-5.4-1-9.3-3-11.7-2-2.4-5.2-3.6-9.6-3.6s-7,.7-9.8,2.1c-2.9,1.4-4.3,2.8-4.3,4.3s1.2.9,3.5,2.5c2.4,1.6,3.5,3.5,3.5,5.7s-.6,3-1.9,4.2-2.8,1.8-4.6,1.8-3.7-.7-5-2.1c-1.3-1.4-1.9-3.2-1.9-5.5,0-4,2.1-7.5,6.2-10.3s9.3-4.2,15.5-4.2,7,.5,10,1.6,5.3,2.6,7,4.6c1.4,1.8,2.5,3.8,3.1,6.2s.9,6.2.9,11.3v26.2c0,4,.3,6.7.8,8s1.5,2,2.9,2c2,0,3.7-1.4,5-4.3,1.3-2.9,2-6.6,2-11.2v-.7h1.3v1.7c0,5.5-1,9.8-3,12.8s-4.8,4.5-8.5,4.5-5.5-1.2-7.2-3.7c-1.6-2.4-2.5-6.1-2.6-11v-.2ZM372.2,146.3c-8.4,1.1-14.6,3.4-18.7,7-4.1,3.5-6.1,8.3-6.1,14.5s.9,6.9,2.7,9.2c1.8,2.3,4.2,3.5,7.1,3.5,4.5,0,8.1-2.2,10.9-6.7s4.2-10.4,4.2-17.8v-9.6h-.1Z"/>
    <path class="st0" d="M399.2,179.9v-2h3.6c3,0,5-.4,5.9-1.3.9-.9,1.3-2.7,1.3-5.6v-37c0-4-.7-6.7-2-7.9-1.3-1.2-3.9-1.9-7.9-1.9h-1.8v-2l21.2-.5v17.9h.5c1.7-6,4.3-10.6,7.7-13.8,3.4-3.2,7.5-4.8,12.3-4.8s9.6,1.8,12.3,5.4c2.7,3.6,4,9,4,16.4v28.2c0,2.8.4,4.7,1.3,5.6s2.8,1.3,5.7,1.3h3.9v2h-30.7v-2h3.3c2.9,0,4.8-.4,5.6-1.3s1.3-2.7,1.3-5.6v-35.3c0-4.2-.8-7.3-2.3-9.4s-3.7-3.2-6.7-3.2c-5.4,0-9.8,3.1-13.2,9.3-3.4,6.2-5.2,14.4-5.2,24.5v14.1c0,2.8.4,4.7,1.3,5.6.9.9,2.7,1.3,5.5,1.3h3.4v2h-30.7.4Z"/>
    <path class="st0" d="M475.4,182.5v-25.9h1.7c2.5,7.6,5.8,13.5,9.8,17.7,4.1,4.2,8.6,6.3,13.5,6.3s6.5-.9,8.6-2.7,3.1-4.3,3.1-7.4-.7-4.7-2.1-6.5-3.8-3.4-7.2-5-4.1-1.9-7.2-3.2c-6-2.6-10.1-4.7-12.3-6.3-2.8-2.1-4.8-4.2-6.1-6.4-1.3-2.2-1.9-4.6-1.9-7.2,0-4.4,1.6-8.2,4.8-11.3,3.2-3.1,7-4.6,11.6-4.6s7.6,1.2,11.2,3.5c3.7,2.3,5.6,3.5,5.9,3.5.9,0,1.8-.6,2.7-1.8.8-1.2,1.5-2.9,2.1-5h1.6v22.9h-1.6c-2.1-6.6-5-11.7-8.7-15.5-3.8-3.8-7.8-5.7-12.2-5.7s-6.2.8-8.1,2.5-2.9,4-2.9,7,.8,4.9,2.3,6.8c1.5,1.9,3.9,3.5,7.1,4.9,1.7.7,4,1.7,7.1,3,5.8,2.3,9.7,4.1,11.7,5.5,3.2,2.1,5.7,4.4,7.3,6.8,1.6,2.4,2.4,5,2.4,7.8,0,4.9-1.7,8.8-5,11.8s-7.7,4.5-13.1,4.5-4.4-.4-6.5-1.1c-2.1-.8-4.3-2-6.7-3.7-.3-.2-.8-.5-1.3-.9-2-1.5-3.4-2.2-4.3-2.2s-2.1.7-3,2-1.7,3.4-2.4,6.2h-1.7l-.2-.3Z"/>
    <path class="st0" d="M525.4,179.9v-2h3.6c3,0,5-.4,5.8-1.3.9-.9,1.3-2.7,1.3-5.6v-65.4c0-6-.7-9.9-2.2-11.7-1.5-1.8-4.4-2.8-8.8-2.9v-1.8h20.6v50.5h.7c1.7-6,4.3-10.6,7.7-13.8s7.5-4.8,12.3-4.8,9.6,1.8,12.3,5.4,4,9,4,16.4v28.2c0,2.8.4,4.7,1.3,5.6.9.9,2.8,1.3,5.7,1.3h3.8v2h-30.6v-2h3.3c2.9,0,4.7-.4,5.6-1.3.9-.9,1.3-2.7,1.3-5.6v-35.3c0-4.1-.8-7.3-2.3-9.4s-3.8-3.2-6.8-3.2c-5.3,0-9.7,3.1-13.2,9.3-3.4,6.2-5.2,14.4-5.2,24.5v14.1c0,2.8.4,4.6,1.3,5.5.9.9,2.7,1.3,5.5,1.3h3.4v2h-30.6.2Z"/>
    <path class="st0" d="M608.6,134.1c0-4-.7-6.7-2-7.9-1.3-1.2-3.9-1.9-7.9-1.9h-1.8v-2l21.2-.5v49.3c0,2.8.4,4.7,1.3,5.6.9.9,2.7,1.3,5.5,1.3h3.4v2h-30.7v-2h3.6c3,0,5-.4,5.9-1.3.9-.9,1.3-2.7,1.3-5.6v-37h.2Z"/>
    <path class="st0" d="M634,179.9v-2h3.6c3,0,5-.4,5.9-1.3.9-.9,1.3-2.7,1.3-5.6v-37c0-4-.7-6.7-2-7.9-1.3-1.2-3.9-1.9-7.9-1.9h-1.8v-2l21.2-.5v17.9h.5c1.7-6,4.3-10.6,7.7-13.8s7.5-4.8,12.3-4.8,9.6,1.8,12.3,5.4,4,9,4,16.4v28.2c0,2.8.4,4.7,1.3,5.6s2.8,1.3,5.7,1.3h3.9v2h-30.7v-2h3.3c2.9,0,4.8-.4,5.6-1.3s1.3-2.7,1.3-5.6v-35.3c0-4.2-.8-7.3-2.3-9.4s-3.7-3.2-6.7-3.2c-5.4,0-9.8,3.1-13.2,9.3s-5.2,14.4-5.2,24.5v14.1c0,2.8.4,4.7,1.3,5.6.9.9,2.7,1.3,5.5,1.3h3.4v2h-30.7.4Z"/>
    <path class="st0" d="M756.7,163.1c-.9,6.1-3.3,10.8-7.1,14.3s-8.7,5.2-14.6,5.2-6.5-.6-9.5-1.9c-3-1.3-5.6-3.1-7.9-5.5-3.1-3.1-5.4-6.7-7-10.8s-2.5-8.4-2.5-12.8.4-6,1.3-9.1c.9-3,2.3-6.2,4.2-9.4,2.3-4,5.4-7.2,9.2-9.6s7.6-3.6,11.4-3.6c6.2,0,11.5,2.7,15.8,8.1,4.3,5.4,6.8,12.5,7.3,21.4h-38.3c0,.7,0,1.4-.2,2.1v3.2c0,8.3,1.5,14.6,4.5,18.9,3,4.3,7.5,6.5,13.3,6.5s8.7-1.5,12-4.5c3.2-3,5.3-7.2,6.2-12.5h1.9ZM719,147.9h14.8c5.3,0,8.6-.6,10-1.8s2.1-3.6,2.1-7.2c0-5.6-1.1-9.9-3.2-12.9-2.1-3-5.1-4.5-9.1-4.5s-8.4,2.1-10.9,6.2-3.8,10.1-3.8,17.8v2.4h.1Z"/>
  </g>
  <path class="st0" d="M110,201.7c1.4,0,2.6.5,3.6,1.4,1,1,1.5,2.1,1.5,3.5s-.5,2.7-1.4,3.7-2.2,1.4-3.6,1.4-2.6-.5-3.5-1.5-1.4-2.2-1.4-3.6.5-2.5,1.4-3.5,2.1-1.4,3.5-1.4h0Z"/>
  <g>
    <line class="st1" x1="110.4" y1="47.1" x2="110.4" y2="226.2"/>
    <line class="st1" x1="126.2" y1="136.7" x2="200" y2="136.7"/>
    <line class="st1" x1="20.8" y1="136.7" x2="126.2" y2="136.7"/>
    <line class="st1" x1="47" y1="73.3" x2="173.7" y2="200"/>
    <line class="st1" x1="173.7" y1="73.3" x2="47" y2="200"/>
    <g>
      <g>
        <g>
          <circle class="st0" cx="96.3" cy="100.1" r="3.8"/>
          <circle class="st0" cx="91.5" cy="87.7" r="3.2"/>
          <circle class="st0" cx="87.1" cy="76.3" r="2.7"/>
          <circle class="st0" cx="83" cy="65.6" r="2.3"/>
          <circle class="st0" cx="79.1" cy="55.7" r="2"/>
        </g>
        <g>
          <circle class="st0" cx="124.5" cy="173.2" r="3.8"/>
          <circle class="st0" cx="129.2" cy="185.6" r="3.2"/>
          <circle class="st0" cx="133.7" cy="197" r="2.7"/>
          <circle class="st0" cx="137.8" cy="207.7" r="2.3"/>
          <circle class="st0" cx="141.6" cy="217.7" r="2"/>
        </g>
      </g>
      <g>
        <g>
          <circle class="st0" cx="73.9" cy="150.7" r="3.8"/>
          <circle class="st0" cx="61.4" cy="155.5" r="3.2"/>
          <circle class="st0" cx="50" cy="160" r="2.7"/>
          <circle class="st0" cx="39.3" cy="164.1" r="2.3"/>
          <circle class="st0" cx="29.4" cy="167.9" r="2"/>
        </g>
        <g>
          <circle class="st0" cx="146.9" cy="122.6" r="3.8"/>
          <circle class="st0" cx="159.3" cy="117.8" r="3.2"/>
          <circle class="st0" cx="170.8" cy="113.4" r="2.7"/>
          <circle class="st0" cx="181.4" cy="109.3" r="2.3"/>
          <circle class="st0" cx="191.4" cy="105.4" r="2"/>
        </g>
      </g>
      <g>
        <g>
          <circle class="st0" cx="74.6" cy="120.8" r="3.8"/>
          <circle class="st0" cx="62.4" cy="115.4" r="3.2"/>
          <circle class="st0" cx="51.2" cy="110.4" r="2.7"/>
          <circle class="st0" cx="40.8" cy="105.8" r="2.3"/>
          <circle class="st0" cx="31" cy="101.5" r="2"/>
        </g>
        <g>
          <circle class="st0" cx="146.1" cy="152.5" r="3.8"/>
          <circle class="st0" cx="158.3" cy="157.9" r="3.2"/>
          <circle class="st0" cx="169.5" cy="162.9" r="2.7"/>
          <circle class="st0" cx="180" cy="167.5" r="2.3"/>
          <circle class="st0" cx="189.7" cy="171.8" r="2"/>
        </g>
      </g>
      <g>
        <g>
          <circle class="st0" cx="126.2" cy="100.9" r="3.8"/>
          <circle class="st0" cx="131.6" cy="88.7" r="3.2"/>
          <circle class="st0" cx="136.6" cy="77.5" r="2.7"/>
          <circle class="st0" cx="141.2" cy="67" r="2.3"/>
          <circle class="st0" cx="145.5" cy="57.3" r="2"/>
        </g>
        <g>
          <circle class="st0" cx="94.5" cy="172.4" r="3.8"/>
          <circle class="st0" cx="89.1" cy="184.6" r="3.2"/>
          <circle class="st0" cx="84.1" cy="195.8" r="2.7"/>
          <circle class="st0" cx="79.5" cy="206.3" r="2.3"/>
          <circle class="st0" cx="75.2" cy="216" r="2"/>
        </g>
      </g>
    </g>
    <circle class="st0" cx="110.4" cy="69.4" r="9.1"/>
    <circle class="st0" cx="110.4" cy="205.4" r="9.1"/>
    <circle class="st0" cx="177.6" cy="136.7" r="9.1"/>
    <circle class="st0" cx="43.1" cy="136.7" r="9.1"/>
    <circle class="st0" cx="110.4" cy="136.7" r="28.4"/>
  </g>
</svg>